<svg  viewBox="0 0 1233 1024" version="1.1" xmlns="http://www.w3.org/2000/svg">
    <path d="M107.160213 887.41418a28.541277 28.541277 0 0 1 21.954829 8.781932 29.199922 29.199922 0 0 1 8.781932 21.954828v104.285437H30.757409a28.541277 28.541277 0 0 1-21.954829-8.781931 29.199922 29.199922 0 0 1-8.781931-21.954829v-49.617913h112.189175v-24.589409a5.049611 5.049611 0 0 0-1.31729-3.512772 4.830062 4.830062 0 0 0-3.732321-1.536838H1.11839v-25.028505z m5.049611 109.774144v-30.078115H25.707798v24.589408a4.610514 4.610514 0 0 0 1.31729 3.512772 4.830062 4.830062 0 0 0 3.732321 1.536838z m241.503117-109.774144h26.784891l-50.05701 134.363552h-21.954829l-43.909657-99.894471-43.909658 99.894471H200.468236l-52.252493-134.363552h26.565343l36.445016 89.136605 38.640499-89.136605h28.541277l41.05553 89.136605 34.029984-89.136605z m141.389097 0a28.102181 28.102181 0 0 1 21.954829 8.781932 29.419471 29.419471 0 0 1 9.00148 21.954828v49.617913h-112.84782v24.589409a4.171417 4.171417 0 0 0 1.536838 3.512772 4.390966 4.390966 0 0 0 3.512772 1.536838h106.700468v25.028505h-106.700468a28.760826 28.760826 0 0 1-21.954828-8.781931 29.199922 29.199922 0 0 1-8.781932-21.954829v-74.207322a28.760826 28.760826 0 0 1 8.781932-21.954828 29.199922 29.199922 0 0 1 21.954828-8.781932z m-81.671963 54.667524h86.721574v-24.589409a4.390966 4.390966 0 0 0-1.536838-3.512772 4.610514 4.610514 0 0 0-3.512773-1.536838h-76.841901a5.269159 5.269159 0 0 0-5.04961 5.04961z m271.361684-24.36986v5.04961h-25.028505v-5.04961a4.171417 4.171417 0 0 0-1.536838-3.512773 4.610514 4.610514 0 0 0-3.512772-1.536838h-76.841901a4.390966 4.390966 0 0 0-3.512773 1.536838 4.171417 4.171417 0 0 0-1.536838 3.512773v20.198442a4.171417 4.171417 0 0 0 1.536838 3.512773 4.390966 4.390966 0 0 0 3.512773 1.536838h76.622352a28.760826 28.760826 0 0 1 21.954829 8.781931 30.078115 30.078115 0 0 1 8.781932 21.954829v19.539798a29.639019 29.639019 0 0 1-8.781932 21.954829 29.199922 29.199922 0 0 1-21.954829 8.781931h-76.622352a28.760826 28.760826 0 0 1-21.954829-8.781931 30.078115 30.078115 0 0 1-8.781932-21.954829v-5.049611h24.808957v5.049611a4.171417 4.171417 0 0 0 1.536838 3.512772 4.390966 4.390966 0 0 0 3.512773 1.536838h76.622352a4.610514 4.610514 0 0 0 3.512773-1.536838 4.171417 4.171417 0 0 0 1.536838-3.512772v-19.539798a4.390966 4.390966 0 0 0-1.536838-3.512772 4.610514 4.610514 0 0 0-3.512773-1.536838h-75.744159a28.760826 28.760826 0 0 1-21.954829-8.781932 30.078115 30.078115 0 0 1-8.781932-21.954829v-19.539797a29.639019 29.639019 0 0 1 8.781932-21.954829 29.199922 29.199922 0 0 1 21.954829-8.781932h76.622352a28.760826 28.760826 0 0 1 21.954829 8.781932 29.419471 29.419471 0 0 1 8.781932 21.954829z m52.911137-30.297664h75.74416a28.760826 28.760826 0 0 1 21.954829 8.781932 30.078115 30.078115 0 0 1 8.781931 21.954828v74.207322a29.639019 29.639019 0 0 1-8.781931 21.954828 29.199922 29.199922 0 0 1-21.954829 8.781932h-75.963708a28.760826 28.760826 0 0 1-21.954829-8.781932 30.078115 30.078115 0 0 1-8.781931-21.954828v-74.865967a29.639019 29.639019 0 0 1 8.781931-21.954828 29.199922 29.199922 0 0 1 21.954829-8.781932z m75.74416 25.028505h-75.963708a5.269159 5.269159 0 0 0-5.049611 5.04961v74.207322a4.171417 4.171417 0 0 0 1.536838 3.512772 4.390966 4.390966 0 0 0 3.512773 1.536838h75.963708a4.390966 4.390966 0 0 0 3.512772-1.536838 4.171417 4.171417 0 0 0 1.536838-3.512772v-74.207322a4.390966 4.390966 0 0 0-1.536838-3.512772 5.269159 5.269159 0 0 0-3.512772-1.536838z m226.134736-25.028505a28.321729 28.321729 0 0 1 21.954829 8.781932 29.419471 29.419471 0 0 1 9.00148 21.954828v104.285437h-25.248053v-104.944082a4.171417 4.171417 0 0 0-1.31729-3.512772 5.049611 5.049611 0 0 0-3.732321-1.536838h-53.130685a5.269159 5.269159 0 0 0-5.049611 5.04961v104.285437h-25.028505v-104.285437a4.390966 4.390966 0 0 0-1.536838-3.512772 4.171417 4.171417 0 0 0-3.512773-1.536838h-53.130685a4.171417 4.171417 0 0 0-3.512773 1.536838 4.390966 4.390966 0 0 0-1.536838 3.512772v104.285437h-25.028505v-134.363552z m160.709347 0a28.541277 28.541277 0 0 1 21.954829 8.781932 29.199922 29.199922 0 0 1 8.781931 21.954828v49.617913h-111.53053v24.589409a4.610514 4.610514 0 0 0 1.31729 3.512772 4.830062 4.830062 0 0 0 3.732321 1.536838h106.041823v25.028505h-106.041823a28.541277 28.541277 0 0 1-21.954829-8.781931 29.199922 29.199922 0 0 1-8.781932-21.954829v-74.207322a30.078115 30.078115 0 0 1 30.078116-30.078115z m-81.452415 54.667524h86.502026v-24.589409a5.049611 5.049611 0 0 0-1.31729-3.512772 4.830062 4.830062 0 0 0-3.732321-1.536838h-75.744159a4.830062 4.830062 0 0 0-3.732321 1.536838 5.049611 5.049611 0 0 0-1.31729 3.512772v24.589409z"
          fill="#494368" />
    <path d="M1230.588803 289.584192L915.53701 0.219548l-43.909658 48.300624 263.457946 241.503116H97.719637l263.457946-241.503116-43.909658-48.300624L1.11839 289.584192v190.787462C1.11839 566.434583 84.107643 636.690035 186.197597 636.690035h194.519783c101.870406 0 185.079207-70.255452 185.079207-156.318381v-125.362072h100.772664v125.362072c0 86.062929 83.208801 156.318381 185.079207 156.318381h194.519783c102.089954 0 185.079207-70.255452 185.079207-156.318381v-190.787462z"
          fill="#FC60A8" />
    <path d="M1030.360764 105.602727l-33.810436 57.960748 137.437228 126.020717H97.939185l137.21768-126.020717-33.810436-57.960748-200.228039 183.981465v190.787462C1.11839 566.434583 84.327191 636.690035 186.197597 636.690035h194.519783c102.089954 0 185.079207-70.255452 185.079207-156.318381v-125.362072h100.992212v125.362072c0 86.062929 82.989253 156.318381 185.079207 156.318381h194.519783c101.870406 0 185.079207-70.255452 185.079207-156.318381v-190.787462z"
          fill="#FC60A8" />
</svg>