<svg viewBox="0 0 1024 1024" version="1.1" xmlns="http://www.w3.org/2000/svg" >
    <path d="M368.64 798.72m-81.92 0a81.92 81.92 0 1 0 163.84 0 81.92 81.92 0 1 0-163.84 0Z" fill="#B6C2CD" />
    <path d="M798.72 374.49728c0-58.10176-47.75936-105.32864-106.496-105.32864-58.73664 0-106.496 47.22688-106.496 105.32864 0 38.99392 21.46304 72.9088 53.248 91.15648v14.17216c0 32.74752-12.98432 55.45984-42.10688 73.89184-25.6 16.11776-63.3856 28.13952-112.31232 35.36896-23.28576 3.46112-42.76224 9.87136-58.5728 17.6128v-246.3744c31.78496-18.24768 53.248-52.16256 53.248-91.15648C479.232 211.06688 431.47264 163.84 372.736 163.84c-58.73664 0-106.496 47.22688-106.496 105.32864 0 38.99392 21.46304 72.9088 53.248 91.17696v344.2688c-31.78496 18.26816-53.248 52.18304-53.248 91.17696C266.24 853.89312 313.99936 901.12 372.736 901.12c58.73664 0 106.496-47.22688 106.496-105.32864a104.16128 104.16128 0 0 0-27.79136-70.92224c3.1744-8.06912 16.13824-26.8288 48.92672-31.76448 64.55296-9.54368 114.64704-26.17344 153.6-50.688 59.88352-37.51936 91.50464-93.7984 91.50464-162.6112v-14.1312c31.78496-18.26816 53.248-52.18304 53.248-91.17696zM372.736 203.34592c36.78208 0 66.56 29.45024 66.56 65.82272s-29.77792 65.82272-66.56 65.82272-66.56-29.45024-66.56-65.82272 29.77792-65.82272 66.56-65.82272z m0 658.26816c-36.78208 0-66.56-29.45024-66.56-65.82272s29.77792-65.82272 66.56-65.82272 66.56 29.45024 66.56 65.82272-29.77792 65.82272-66.56 65.82272zM692.224 440.32c-36.78208 0-66.56-29.45024-66.56-65.82272s29.77792-65.8432 66.56-65.8432 66.56 29.47072 66.56 65.8432c0 36.37248-29.77792 65.82272-66.56 65.82272z" fill="#324558" />
</svg>