<svg viewBox="0 0 1024 1024" version="1.1" xmlns="http://www.w3.org/2000/svg">
    <path d="M888.956 63.56a28.954 28.954 0 0 0-18.082-13.03 29.234 29.234 0 0 0-6.708-0.784c-13.556 0-25.198 9.226-28.318 22.434l-29.17 123.58 56.682 13.38 29.166-123.582c1.786-7.568 0.52-15.382-3.57-21.998z m-10.292 18.726l-25.894 109.72-28.958-6.834 25.898-109.718c1.858-7.874 9.95-12.94 17.892-11.062a14.78 14.78 0 0 1 9.236 6.658 14.764 14.764 0 0 1 1.826 11.236zM956.51 70.742a29.234 29.234 0 0 0-6.708-0.784 29.006 29.006 0 0 0-28.322 22.434l-29.166 123.582 56.678 13.376 29.172-123.578c3.684-15.628-6.03-31.34-21.654-35.03z m7.79 31.756l-25.898 109.722-28.954-6.834 25.894-109.718a14.816 14.816 0 0 1 14.46-11.466c1.15 0 2.304 0.136 3.436 0.404 7.982 1.882 12.944 9.91 11.062 17.892z"
          fill="#4A555F"/>
    <path d="M1010.332 123.848a28.916 28.916 0 0 0-18.076-13.03 29.26 29.26 0 0 0-6.708-0.784 29.004 29.004 0 0 0-28.322 22.432l-22.096 93.612 56.682 13.38 22.092-93.612a28.934 28.934 0 0 0-3.572-21.998z m-10.292 18.724l-18.818 79.75-28.958-6.834 18.822-79.75c1.858-7.868 9.916-12.948 17.896-11.06a14.784 14.784 0 0 1 9.236 6.656 14.786 14.786 0 0 1 1.822 11.238zM920.162 33.22a29.234 29.234 0 0 0-6.708-0.784c-13.556 0-25.198 9.226-28.318 22.436l-35.64 150.996 56.678 13.376 35.638-150.994c3.688-15.626-6.026-31.338-21.65-35.03z m7.79 31.756l-32.366 137.136-28.954-6.834 32.366-137.134c1.86-7.872 9.944-12.934 17.892-11.062 7.984 1.886 12.944 9.914 11.062 17.894zM784.962 103.13l-6.926-1.626-19.552 82.882 62.042 14.67 6.574-27.762a56.48 56.48 0 0 0 1.526-13.042c-0.002-26.412-17.958-49.078-43.664-55.122z m28.28 64.874l-3.296 13.916-34.336-8.12 12.884-54.6c15.54 6.514 25.888 21.704 25.888 39.054 0 3.294-0.384 6.572-1.14 9.75z"
          fill="#4A555F"/>
    <path d="M761.364 170.432l-13.988 59.262c-7.368 31.216-2.138 63.43 14.724 90.712 16.862 27.282 43.34 46.362 74.55 53.73a120.794 120.794 0 0 0 27.678 3.236c55.894 0 103.912-38.044 116.768-92.516l13.988-59.26-233.72-55.164z m205.87 111.15c-11.332 48.012-53.646 81.546-102.906 81.546-8.164 0-16.376-0.96-24.404-2.856-27.512-6.494-50.85-23.312-65.708-47.354-14.864-24.046-19.472-52.44-12.976-79.952l10.714-45.4 205.996 48.618-10.716 45.398zM722.696 754.522c-58.982 0-106.972 47.988-106.972 106.972s47.99 106.972 106.972 106.972 106.972-47.986 106.972-106.972-47.99-106.972-106.972-106.972z m0 199.7c-51.132 0-92.73-41.598-92.73-92.728 0-51.13 41.596-92.73 92.73-92.73s92.73 41.598 92.73 92.73c0 51.13-41.596 92.728-92.73 92.728z"
          fill="#4A555F"/>
    <path d="M722.696 785.38c-41.966 0-76.112 34.146-76.112 76.116s34.146 76.112 76.112 76.112c41.968 0 76.112-34.142 76.112-76.112 0.002-41.97-34.144-76.116-76.112-76.116z"
          fill="#F58E6F"/>
    <path d="M722.71 801.194l-0.774 0.004c-16.106 0.204-31.17 6.666-42.416 18.2-11.242 11.532-17.326 26.752-17.122 42.86 0.418 32.828 27.46 59.538 60.284 59.538l0.774-0.004c16.106-0.204 31.17-6.666 42.416-18.2 11.242-11.532 17.326-26.754 17.122-42.86-0.416-32.83-27.458-59.538-60.284-59.538z m32.964 92.454a45.756 45.756 0 0 1-32.394 13.9l-0.598 0.004c-25.072 0-45.728-20.402-46.042-45.476a45.74 45.74 0 0 1 13.078-32.736 45.738 45.738 0 0 1 32.394-13.898l0.598-0.004c25.072 0 45.726 20.402 46.042 45.476a45.73 45.73 0 0 1-13.078 32.734zM205.644 744.984c-60.934 0-110.504 49.57-110.504 110.502v3.162c0 60.932 49.57 110.504 110.504 110.504 60.928 0 110.5-49.572 110.5-110.504v-3.162c-0.002-60.932-49.572-110.502-110.5-110.502z m96.256 113.664c0 53.08-43.182 96.262-96.256 96.262-53.08 0-96.262-43.182-96.262-96.262v-3.162c0-53.078 43.182-96.258 96.262-96.258 53.076 0 96.256 43.182 96.256 96.258v3.162z"
          fill="#4A555F"/>
    <path d="M205.642 775.84c-43.986 0-79.644 35.658-79.644 79.644v3.164c0 43.986 35.658 79.644 79.644 79.644s79.644-35.658 79.644-79.644v-3.164c-0.002-43.986-35.66-79.644-79.644-79.644z"
          fill="#F58E6F"/>
    <path d="M9.308 744.984l0.004 14.242c47.326 0 85.826 38.5 85.826 85.828V1024h14.242v-178.946c0.002-55.178-44.89-100.07-100.072-100.07z"
          fill="#4A555F"/>
    <path d="M33.05 780.034L33.046 1024h45.476v-178.946c0-29.83-18.966-55.31-45.472-65.02z" fill="#FFD452"/>
    <path d="M143.352 408.626c-38.536 65.264-65.76 135.922-80.92 210.016l13.956 2.856c14.84-72.544 41.498-141.73 79.232-205.63l-12.268-7.242zM314.58 214.432l8.726 11.256a698.014 698.014 0 0 1 11.224-8.514l-8.494-11.432a706.29 706.29 0 0 0-11.456 8.69z m-22.37 18.092l9.188 10.886a676.784 676.784 0 0 1 10.862-8.978l-8.966-11.072a750.118 750.118 0 0 0-11.084 9.164z m45.468-35.234l8.252 11.61a688.232 688.232 0 0 1 11.562-8.034l-8.002-11.782a672.22 672.22 0 0 0-11.812 8.206z m-67.062 54.248l9.634 10.492a640.4 640.4 0 0 1 10.478-9.418l-9.412-10.696a677.856 677.856 0 0 0-10.7 9.622z m-40.72 40.652l10.468 9.652a659.686 659.686 0 0 1 9.662-10.264l-10.274-9.866a716.968 716.968 0 0 0-9.856 10.478z m-37.21 43.914l11.238 8.744a677.568 677.568 0 0 1 8.772-11.034l-11.054-8.98a652.264 652.264 0 0 0-8.956 11.27z m57.14-64.666l10.062 10.08a678.324 678.324 0 0 1 10.078-9.85l-9.848-10.292a677.834 677.834 0 0 0-10.292 10.062z m-38.994 42.32l10.868 9.208a668 668 0 0 1 9.222-10.66l-10.672-9.43a675.744 675.744 0 0 0-9.418 10.882z m150.644-132.63l7.752 11.948a652.33 652.33 0 0 1 11.896-7.542l-7.502-12.11a691.726 691.726 0 0 0-12.146 7.704z m280.676-103.976c-4.752 0.64-9.494 1.328-14.22 2.064l2.188 14.072c4.632-0.718 9.272-1.394 13.932-2.02l-1.9-14.116zM385.926 165.978l7.242 12.262a643.2 643.2 0 0 1 12.198-7.032l-6.982-12.416a682.594 682.594 0 0 0-12.458 7.186z m185.704-75.546l3.366 13.838a657.922 657.922 0 0 1 13.696-3.178l-3.07-13.908a683.6 683.6 0 0 0-13.992 3.248z m-27.77 7.376l3.95 13.686a664.012 664.012 0 0 1 13.556-3.758l-3.662-13.764a690.23 690.23 0 0 0-13.844 3.836z m55.806-13.578l2.782 13.97c4.586-0.914 9.194-1.78 13.82-2.602l-2.494-14.024c-4.72 0.84-9.42 1.724-14.108 2.656z m-83.234 22.124l4.526 13.506a661.86 661.86 0 0 1 13.39-4.326l-4.238-13.598c-4.582 1.426-9.14 2.9-13.678 4.418z m-105.446 45.522l6.722 12.554a658.724 658.724 0 0 1 12.486-6.516l-6.458-12.694a668.472 668.472 0 0 0-12.75 6.656z m25.624-13.042l6.194 12.828a666.14 666.14 0 0 1 12.736-5.986l-5.916-12.954a695.362 695.362 0 0 0-13.014 6.112z m26.148-11.948l5.646 13.074a674.522 674.522 0 0 1 12.978-5.442l-5.37-13.19a688.46 688.46 0 0 0-13.254 5.558z m26.626-10.83l5.09 13.302a654.242 654.242 0 0 1 13.194-4.886l-4.812-13.408a674.3 674.3 0 0 0-13.472 4.992zM467.362 0C268.44 73.018 107.652 218.322 14.608 409.146l12.806 6.24C118.834 227.888 276.818 85.116 472.268 13.37L467.362 0zM443.7 268.25c-85.076 50.716-155.796 123.07-204.518 209.25-33.808 59.8-56.232 124.516-66.65 192.356l14.076 2.16c10.158-66.126 32.018-129.214 64.972-187.508 47.506-84.026 116.462-154.576 199.408-204.024l-7.288-12.234zM551.028 218.64l4.59 13.482a563.482 563.482 0 0 1 13.366-4.362l-4.248-13.594a559.65 559.65 0 0 0-13.708 4.474z m-27.062 9.988l5.276 13.232a560.4 560.4 0 0 1 13.126-5.04l-4.934-13.362c-4.52 1.67-9.008 3.394-13.468 5.17z m54.586-18.586l3.894 13.7c4.498-1.28 9.022-2.504 13.57-3.67l-3.542-13.798a563.288 563.288 0 0 0-13.922 3.768z m56.186-12.92l2.484 14.024c4.604-0.814 9.222-1.572 13.866-2.27l-2.114-14.084c-4.764 0.716-9.512 1.494-14.236 2.33z m42.844-5.9c-4.798 0.478-9.574 1.01-14.326 1.606l1.762 14.13a571.58 571.58 0 0 1 13.974-1.564l-1.41-14.172z m-71.096 11.642l3.19 13.88c4.562-1.048 9.142-2.04 13.742-2.976l-2.836-13.954c-4.722 0.96-9.422 1.976-14.096 3.05zM318.086 647.364l13.778 3.62a396.59 396.59 0 0 1 3.788-13.49l-13.65-4.08a451.924 451.924 0 0 0-3.916 13.95z m8.302-27.764l13.5 4.54a396.856 396.856 0 0 1 4.688-13.198l-13.334-4.998a426.34 426.34 0 0 0-4.854 13.656z m-19.174 84.674l14.14 1.72c0.566-4.648 1.206-9.274 1.93-13.872l-14.066-2.216c-0.752 4.762-1.42 9.552-2.004 14.368z m4.474-28.642l13.992 2.674c0.876-4.598 1.832-9.17 2.86-13.716l-13.89-3.148a434.066 434.066 0 0 0-2.962 14.19z m24.868-83.166l13.158 5.442a422.196 422.196 0 0 1 5.572-12.844l-12.962-5.892a410.62 410.62 0 0 0-5.768 13.294z m107.194-152.984a415.986 415.986 0 0 0-10.514 9.962l9.968 10.172a412.224 412.224 0 0 1 10.162-9.624l-9.616-10.51z m-30.512 30.906l10.626 9.486a416.092 416.092 0 0 1 9.5-10.29l-10.302-9.834a437.58 437.58 0 0 0-9.824 10.638z m-18.548 22.232l11.228 8.758a427.424 427.424 0 0 1 8.796-10.904l-10.932-9.124a423.82 423.82 0 0 0-9.092 11.27z m-17.02 23.434l11.794 7.978c2.62-3.868 5.3-7.692 8.04-11.462l-11.516-8.376a410.528 410.528 0 0 0-8.318 11.86z m-15.416 24.524l12.304 7.168a405.298 405.298 0 0 1 7.25-11.978l-12.054-7.584a427.44 427.44 0 0 0-7.5 12.394z m-13.732 25.508l12.768 6.32a389.986 389.986 0 0 1 6.426-12.432l-12.536-6.764a418.4 418.4 0 0 0-6.658 12.876zM692.45 328.56c-66.136 6.392-130.81 28.476-187.03 63.868l7.584 12.054c54.354-34.218 116.878-55.568 180.816-61.746l-1.37-14.176zM478.182 618.034l12.518 6.802a279.94 279.94 0 0 1 6.936-12.042l-12.166-7.408a300.122 300.122 0 0 0-7.288 12.648z m-12.624 26.34l13.138 5.508a281.364 281.364 0 0 1 5.69-12.684l-12.852-6.144a306.76 306.76 0 0 0-5.976 13.32z m27.828-51.262l11.776 8.016a284.72 284.72 0 0 1 8.1-11.288l-11.358-8.586a299.106 299.106 0 0 0-8.518 11.858z m-37.74 78.75l13.622 4.154c1.334-4.38 2.814-8.82 4.386-13.194l-13.4-4.822a298.288 298.288 0 0 0-4.608 13.862z m-7.094 28.332l13.974 2.758c0.896-4.544 1.916-9.104 3.022-13.552l-13.816-3.45a294.06 294.06 0 0 0-3.18 14.244z m62.45-130.36l10.914 9.146a285.092 285.092 0 0 1 9.184-10.418l-10.45-9.68a298.218 298.218 0 0 0-9.648 10.952z m90.62-72.356l6.5 12.676a276.926 276.926 0 0 1 12.494-6.018l-5.86-12.982a291.29 291.29 0 0 0-13.134 6.324z m26.588-11.982l5.192 13.264a270.856 270.856 0 0 1 13.032-4.726l-4.516-13.51a287.446 287.446 0 0 0-13.708 4.972z m41.788-12.81a295.32 295.32 0 0 0-14.14 3.568l3.83 13.718c4.436-1.238 8.962-2.38 13.444-3.39l-3.134-13.896z m-139.162 75.746l9.95 10.19a273.032 273.032 0 0 1 10.172-9.452l-9.43-10.672a289.524 289.524 0 0 0-10.692 9.934z m45.538-36.362l7.734 11.958a282.18 282.18 0 0 1 11.836-7.242l-7.13-12.328a288.628 288.628 0 0 0-12.44 7.612z m-23.672 17.04l8.892 11.126a276.634 276.634 0 0 1 11.058-8.39l-8.326-11.558a293.114 293.114 0 0 0-11.624 8.822zM922.378 345.77l-4.748 2.794c-23.218 13.668-51.24 17.936-77.698 11.69-23.334-5.478-43.558-18.302-58.482-37.09l-8.91-11.21-15.244 59.296a667.492 667.492 0 0 1-29.402 88.262 652.944 652.944 0 0 1-41.518 83.176l-3.542 5.994c-13.028 22.034-22.438 37.952-30.548 54.796-9.204 19.21-16.334 38.896-23.822 65.748-12.146 41.75 3.384 86.918 38.652 112.396l3.806 2.754 4.028-2.422c14.34-8.622 30.854-13.178 47.748-13.178 27.916 0 54.114 12.426 71.88 34.092l3.07 3.738 4.604-1.47c37.67-12.024 64.736-43.758 70.628-82.816l55.45-366.506 0.492-3.604-6.444-6.44z m-63.58 374.424c-4.844 32.12-26.3 58.49-56.464 69.844-20.358-22.624-49.102-35.504-79.632-35.504-17.84 0-35.318 4.412-50.85 12.798-27.836-22.358-39.756-59.604-29.686-94.204 7.372-26.434 14.024-44.83 22.958-63.484 7.84-16.282 17.126-31.982 29.974-53.712l3.542-5.992a668.168 668.168 0 0 0 42.422-84.988 683.212 683.212 0 0 0 30.034-90.152l8.35-32.498c15.698 15.752 35.25 26.656 57.224 31.816 25.3 5.962 52.008 3.494 75.52-6.806l-53.392 352.882z"
          fill="#4A555F"/>
    <path d="M864.334 393.968a137.254 137.254 0 0 1-31.452-3.672c-15.842-3.718-30.576-10.058-43.794-18.758l-1.906 7.406a699.074 699.074 0 0 1-30.766 92.356 684.634 684.634 0 0 1-43.464 87.082l-3.574 6.046c-12.63 21.358-21.754 36.79-29.26 52.382-8.498 17.732-14.854 35.344-22.022 61.038-7.208 24.78-0.5 51.284 16.746 69.662a123.91 123.91 0 0 1 47.86-9.59c31.1 0 60.59 11.562 83.244 32.21 19.48-10.716 33.014-29.818 36.426-52.426l49.404-326.544a135.732 135.732 0 0 1-27.442 2.808z"
          fill="#71CCE0"/>
    <path d="M770.718 370.176l-13.046 5.702 29.064 66.504L717.7 691.56l-82.216-20.972-3.522 13.802 95.732 24.422 74.12-267.5zM833.826 450.376l-63.228 259.318 41.67 10.16 63.234-259.318-41.676-10.16z m-32.016 252.268l-14-3.414 56.478-231.644 14.006 3.414-56.484 231.644z"
          fill="#4A555F"/>
    <path d="M862.87 459.886l41.924-28.598 8.028 11.77-41.924 28.596zM800.29 713.654l13.416-4.766 24.796 69.812-13.416 4.766z"
          fill="#4A555F"/>
    <path d="M862.814 279.838m-41.818 0a41.818 41.818 0 1 0 83.636 0 41.818 41.818 0 1 0-83.636 0Z" fill="#FFD452"/>
    <path d="M651.17 802.368l-2.226-4.036c-20.164-36.562-58.644-59.274-100.426-59.274h-146.89c-55 0-99.744 44.744-99.744 99.744v129.654H548.52c30.65 0 59.45-11.92 81.088-33.56a118.626 118.626 0 0 0 13.996-16.924l2.62-3.828-2.448-3.942c-9.018-14.55-13.788-31.392-13.788-48.706 0-20.24 6.366-39.412 18.416-55.446l2.766-3.682z m-35.426 59.128c0 18.354 4.654 36.26 13.496 52.084a102.93 102.93 0 0 1-9.704 11.244c-18.948 18.952-44.168 29.388-71.018 29.388H316.128V838.8c0-47.146 38.356-85.502 85.5-85.502h146.89a100.454 100.454 0 0 1 85.718 48.064c-12.112 17.702-18.492 38.388-18.492 60.134z"
          fill="#4A555F"/>
    <path d="M614.404 801.89a83.86 83.86 0 0 0-65.886-31.974h-146.89c-37.984 0-68.884 30.902-68.884 68.888V937.6H548.52c22.406 0 43.456-8.708 59.27-24.522 0.594-0.594 1.178-1.198 1.758-1.816a123.56 123.56 0 0 1-10.418-49.766c-0.002-21.174 5.236-41.488 15.274-59.606z"
          fill="#71CCE0"/>
    <path d="M364.294 877.866v90.536h172.212v-90.536h-172.212z m157.97 76.294h-143.728v-62.05h143.728v62.05zM561.774 741.46l-24.122 27.262h-135.842l-25.768-22.03-9.252 10.826 29.764 25.446h147.514l28.37-32.064zM540.86 794.688c-20.432 0-37.058 16.624-37.058 37.056s16.626 37.052 37.058 37.052 37.052-16.624 37.052-37.054-16.62-37.054-37.052-37.054z m0 59.866c-12.578 0-22.816-10.234-22.816-22.812s10.238-22.81 22.816-22.81 22.81 10.234 22.81 22.812c0 12.578-10.232 22.81-22.81 22.81z"
          fill="#4A555F"/>
    <path d="M565.172 827.39l47.092-60.172 11.218 8.78-47.092 60.172zM352.584 824.62l-49.594 78.474 12.036 7.608 45.402-71.84h150.496v-14.242z"
          fill="#4A555F"/>
</svg>