<svg viewBox="0 0 1024 1024" version="1.1" xmlns="http://www.w3.org/2000/svg" >
    <path d="M775.3984 889.4208c-8.128-92.3456-85.8944-165.024-180.32-165.024-94.4256 0-172.1984 72.6784-180.3264 165.024H217.6064l0.0192-39.7312h46.1184a16 16 0 0 0 15.6416-12.6336 320.0448 320.0448 0 0 1 44.2816-106.8608c4.096-6.336 3.2064-14.6624-2.1248-19.9936l-32.5184-32.5184 78.5536-78.496 32.4864 32.4864a16 16 0 0 0 19.9936 2.1248 320.0768 320.0768 0 0 1 106.8608-44.2816 16 16 0 0 0 12.64-15.6352v-45.952h111.0464v45.952a16 16 0 0 0 12.6336 15.6352 320.0768 320.0768 0 0 1 106.8608 44.288c6.336 4.0896 14.6624 3.2 19.9936-2.1312l32.4928-32.4864 78.5536 78.496-32.5184 32.512a16 16 0 0 0-2.1248 20 320.0768 320.0768 0 0 1 44.2816 106.8608 16 16 0 0 0 15.6416 12.6336h46.1888v39.7376h-197.2096z"
          fill="#E9F2FE" />
    <path d="M860.6016 817.696h-49.504a351.4624 351.4624 0 0 0-38.8864-93.8432l34.8608-34.8672a15.9872 15.9872 0 0 0 0-22.624l-101.184-101.1136a16 16 0 0 0-22.624 0.0064l-34.8288 34.8288a351.4752 351.4752 0 0 0-93.8432-38.8928V511.936a16 16 0 0 0-16-16h-143.04a16 16 0 0 0-16 16v49.2608a351.4496 351.4496 0 0 0-93.8368 38.8864L250.88 565.2544a16 16 0 0 0-22.6176 0l-101.184 101.1072a16 16 0 0 0-0.0064 22.624l34.8672 34.8672a351.4688 351.4688 0 0 0-38.8928 93.8432h-49.4144a16 16 0 0 0-16 15.9872L57.6 905.408a16.0128 16.0128 0 0 0 16 16.0064h228.4544a16 16 0 0 0 15.9936-16c0-82.1696 66.8544-149.024 149.0304-149.024 82.176 0 149.0304 66.8544 149.0304 149.0304a16 16 0 0 0 15.9936 16h228.4992a16 16 0 0 0 16-16v-71.7312a16 16 0 0 0-16-15.9936zM522.6048 527.936v45.9392a16 16 0 0 0 12.6336 15.6416 320.0768 320.0768 0 0 1 106.8608 44.288c6.336 4.0896 14.6624 3.2 19.9936-2.1312l32.4928-32.4864 78.5536 78.4896-32.5184 32.5248a16 16 0 0 0-2.1248 19.9936 320.0768 320.0768 0 0 1 44.2816 106.8608 16 16 0 0 0 15.6416 12.6336h46.1888v39.7376h-197.2096c-8.128-92.352-85.8944-165.0304-180.32-165.0304-94.4256 0-172.1984 72.6784-180.3264 165.0304H89.6064l0.0192-39.7376h46.1184a16 16 0 0 0 15.6416-12.6336 320.0448 320.0448 0 0 1 44.2816-106.8608c4.096-6.336 3.2064-14.6624-2.1248-19.9936l-32.5184-32.5184 78.5536-78.496 32.4864 32.4864a16 16 0 0 0 19.9936 2.1248 320.0768 320.0768 0 0 1 106.8608-44.2816 16 16 0 0 0 12.64-15.6352v-45.952h111.0464z m-5.3568 146.8736a16 16 0 0 0 10.9248 19.808c64.7936 18.7456 118.2784 67.456 143.0848 130.2912a16 16 0 1 0 29.76-11.744c-28.416-72-89.7088-127.8016-163.9552-149.28a16 16 0 0 0-19.8144 10.9248z m-49.8688-20.8h-0.3008a16 16 0 1 0 0 32h0.2496a16 16 0 0 0 0.0512-32z"
          fill="#2A83FC"/>
    <path d="M623.936 291.136a16 16 0 0 1 15.9936 16v134.368a16 16 0 0 1-31.9936 0V307.1296a16 16 0 0 1 16-15.9936z m236.864 0a16 16 0 0 1 16 16v134.368a16 16 0 0 1-31.9936 0V307.1296a16 16 0 0 1 16-15.9936z m-316.9088 0a16 16 0 0 1 16 16v134.368a16 16 0 0 1-32 0V307.1296a16 16 0 0 1 16-15.9936z m-118.2528 0c29.9904 0 54.3936 24.3968 54.3872 54.3872v57.5872c0 29.9904-24.3968 54.3872-54.3872 54.3872-29.984 0-54.3872-24.3968-54.3872-54.3872v-57.5872c0-29.984 24.3968-54.3872 54.3872-54.3872z m316.736 0c29.984 0 54.3808 24.3968 54.3808 54.3872v57.5872c0 29.9904-24.3968 54.3872-54.3872 54.3872s-54.3872-24.3968-54.3872-54.3872v-57.5872c0-29.9904 24.3968-54.3872 54.3872-54.3872z m-316.736 31.9936c-12.352 0-22.3936 10.048-22.3936 22.3936v57.5872c0 12.352 10.048 22.4 22.4 22.4 12.3456 0 22.3936-10.048 22.3936-22.4v-57.5872c0-12.352-10.048-22.4-22.4-22.4z m316.736 0c-12.352 0-22.4 10.048-22.4 22.3936v57.5872c0 12.352 10.048 22.4 22.4 22.4 12.3456 0 22.3872-10.048 22.3872-22.4v-57.5872c0-12.352-10.048-22.4-22.3936-22.4zM230.4192 102.4a16 16 0 0 1 15.9936 16v134.368a16 16 0 0 1-31.9936 0V118.4a16 16 0 0 1 16-16z m236.864 0a16 16 0 0 1 16 16v134.368a16 16 0 0 1-32 0V118.4a16 16 0 0 1 16-16z m-355.3024 0c29.9904 0 54.3872 24.3968 54.3872 54.3872v57.5872c0 29.9904-24.3968 54.3872-54.3872 54.3872S57.6 244.3648 57.6 214.3744v-57.5872C57.6 126.7968 81.9968 102.4 111.9872 102.4z m236.8704 0c29.9904 0 54.3872 24.3968 54.3872 54.3872v57.5872c0 29.9904-24.3968 54.3872-54.3872 54.3872s-54.3872-24.3968-54.3872-54.3872v-57.5872c0-29.9904 24.3968-54.3872 54.3872-54.3872z m-236.8704 31.9936c-12.352 0-22.4 10.048-22.4 22.4v57.5808c0 12.352 10.048 22.4 22.4 22.4s22.4-10.048 22.4-22.4v-57.5872c0-12.352-10.048-22.3936-22.4-22.3936z m236.8704 0c-12.352 0-22.4 10.048-22.4 22.4v57.5808c0 12.352 10.048 22.4 22.4 22.4s22.4-10.048 22.4-22.4v-57.5872c0-12.352-10.048-22.3936-22.4-22.3936z"
          fill="#2BD2FC"/>
</svg>