<svg viewBox="0 0 1024 1024" version="1.1" xmlns="http://www.w3.org/2000/svg">
    <path d="M378.88 148.48c10.24-20.48-5.12-46.08-25.6-46.08h-10.24c-15.36 0-25.6 5.12-30.72 20.48L250.88 261.12 184.32 122.88c-5.12-15.36-15.36-20.48-25.6-20.48h-10.24c-25.6 0-40.96 25.6-30.72 46.08l92.16 184.32V460.8c0 15.36 15.36 30.72 30.72 30.72H256c15.36 0 30.72-15.36 30.72-30.72V332.8l92.16-184.32zM711.68 445.44l-117.76-322.56c-5.12-10.24-15.36-20.48-30.72-20.48h-15.36c-15.36 0-25.6 10.24-30.72 20.48L404.48 445.44c-10.24 20.48 5.12 46.08 25.6 46.08h10.24c15.36 0 25.6-10.24 30.72-20.48l15.36-46.08h138.24l15.36 46.08c5.12 15.36 15.36 20.48 30.72 20.48h10.24c25.6 0 40.96-25.6 30.72-46.08zM512 358.4l51.2-143.36 40.96 143.36H512zM532.48 921.6c15.36 0 30.72-15.36 30.72-30.72v-322.56c0-15.36-15.36-30.72-30.72-30.72h-25.6c-10.24 0-25.6 5.12-30.72 20.48l-92.16 189.44-92.16-189.44c-5.12-10.24-15.36-20.48-30.72-20.48h-15.36c-15.36 0-30.72 15.36-30.72 30.72v322.56c0 15.36 15.36 30.72 30.72 30.72H256c15.36 0 30.72-15.36 30.72-30.72v-194.56l66.56 128c5.12 10.24 15.36 15.36 30.72 15.36h10.24c10.24 0 25.6-5.12 30.72-15.36l66.56-128v194.56c0 15.36 15.36 30.72 30.72 30.72h10.24zM870.4 921.6c15.36 0 30.72-15.36 30.72-30.72v-5.12c0-15.36-15.36-30.72-30.72-30.72h-143.36v-286.72c0-15.36-15.36-30.72-30.72-30.72h-10.24c-15.36 0-30.72 15.36-30.72 30.72v322.56c0 15.36 15.36 30.72 30.72 30.72H870.4z"
    />
</svg>