<svg viewBox="0 0 1024 1024" version="1.1" xmlns="http://www.w3.org/2000/svg">
    <path d="M297.152 754.56l185.728 185.664a41.088 41.088 0 0 0 58.24 0l399.104-399.104a41.216 41.216 0 0 0 0-58.24L541.12 83.776a41.216 41.216 0 0 0-58.24 0L83.776 482.88a41.216 41.216 0 0 0 0 58.24l178.24 178.304A78.336 78.336 0 0 1 256 687.744c0-33.984 18.752-57.216 56.32-69.568v-1.28c-13.824-8.384-20.736-21.376-20.736-38.912 0-22.4 6.464-36.544 19.456-42.304v-1.28c-14.848-4.928-27.136-16.064-36.928-33.536a104.192 104.192 0 0 1-14.72-51.2c0-28.608 9.792-52.48 29.376-71.552a100.032 100.032 0 0 1 72.64-28.608c19.84 0 38.144 4.864 55.04 14.528 20.224 0 42.688-4.864 67.392-14.528v62.464a268.736 268.736 0 0 1-24.384 6.848c3.264 8.832 4.928 17.536 4.928 25.92 0 26.24-7.488 48.512-22.528 66.944-15.04 18.432-35.328 30.08-60.928 34.816a35.904 35.904 0 0 0-18.368 8.32c-4.096 3.904-6.08 9.92-6.016 17.92 0 6.4 2.304 11.712 6.912 15.936 5.184 4.48 11.328 7.872 17.92 9.856 7.36 2.368 15.424 4.672 24.32 6.848 8.832 2.112 17.728 4.736 26.56 7.872 8.896 3.072 16.96 6.912 24.32 11.52a52.48 52.48 0 0 1 17.92 19.84c4.8 9.408 7.232 19.84 6.912 30.464 0 62.72-37.44 94.016-112.256 94.016a201.6 201.6 0 0 1-40.192-3.84 138.24 138.24 0 0 1-31.808-10.752v0.064z m121.792-71.424c0-20.608-17.024-30.912-51.008-30.912-32.576 0-48.832 10.752-48.832 32.192 0 20.8 17.728 31.232 53.12 31.232 31.168 0 46.72-10.88 46.72-32.448v-0.064zM400.64 449.728a52.032 52.032 0 0 0-9.216-31.488c-6.208-8.448-15.36-12.672-27.52-12.672-25.6 0-38.4 14.912-38.4 44.8 0 27.84 12.8 41.792 38.4 41.792 24.512 0 36.8-14.144 36.8-42.368l-0.064-0.064z m181.44 172.16H513.536c0.832-9.216 1.28-23.04 1.28-41.408V392.192c0-19.328-0.448-32.512-1.28-39.552h68.608a405.12 405.12 0 0 0-1.216 38.4v189.44c0 18.368 0.448 32.192 1.28 41.472l-0.128-0.064zM768 553.408v60.544c-14.656 8.064-32.576 12.096-53.76 12.096-12.8 0-23.808-2.048-33.088-6.208a58.048 58.048 0 0 1-21.632-15.424 68.672 68.672 0 0 1-12.288-24.128 140.992 140.992 0 0 1-5.76-28.48 361.088 361.088 0 0 1-1.152-31.808V411.392h0.64V410.24c-1.472 0-3.456-0.128-5.888-0.32a70.72 70.72 0 0 0-5.568-0.32c-4.352 0-10.432 0.64-18.24 1.92v-58.88h29.696v-23.552c0-11.136-0.64-20.288-1.92-27.52h70.208c-1.28 8.448-1.92 25.472-1.92 51.072h52.928v58.688c-3.072 0-7.616-0.192-13.44-0.64a202.176 202.176 0 0 0-13.184-0.64h-26.24v112.896c0 27.008 8.96 40.448 26.88 40.448a58.048 58.048 0 0 0 33.728-10.24v0.256zM589.888 260.48c0 11.968-3.968 22.4-12.032 31.36a38.336 38.336 0 0 1-29.696 13.504 39.68 39.68 0 0 1-30.272-13.44 44.736 44.736 0 0 1-12.352-31.36c0-12.16 4.032-22.784 12.16-31.872a39.296 39.296 0 0 1 30.528-13.632 37.76 37.76 0 0 1 29.824 13.76 47.04 47.04 0 0 1 11.904 31.68h-0.064z m401.024 331.328l-399.104 399.104a112.896 112.896 0 0 1-159.616 0L33.088 591.808a112.896 112.896 0 0 1 0-159.616L432.192 33.088a112.896 112.896 0 0 1 159.616 0l399.104 399.104a112.896 112.896 0 0 1 0 159.616z"
          fill="#333333"/>
</svg>