<svg viewBox="0 0 1024 1024" version="1.1" xmlns="http://www.w3.org/2000/svg">
    <path d="M712.661333 704h-267.392a192.085333 192.085333 0 0 1-334.506666 93.610667 192 192 0 0 1-8.362667-240.853334 32 32 0 0 1 51.2 38.442667 128 128 0 1 0 230.4 76.8 32 32 0 0 1 32-32h296.661333a64 64 0 1 1 0 64zM256 736a64 64 0 0 0 56.32-94.421333l143.104-232.533334a32 32 0 0 0-10.496-44.032A128 128 0 1 1 629.333333 204.8a32 32 0 0 0 58.666667-25.6 192 192 0 1 0-302.506667 221.354667L257.792 608h-1.706667a64 64 0 1 0 0 128z m512-256c-24.661333 0-49.109333 4.736-71.978667 13.994667L568.32 286.421333A64 64 0 1 0 512 320h1.749333l143.146667 232.618667a32 32 0 0 0 43.989333 10.453333A128 128 0 1 1 768 800a32 32 0 1 0 0 64 192 192 0 1 0 0-384z"
          fill="#ea2868"/>
</svg>