<svg viewBox="0 0 1024 1024" version="1.1" xmlns="http://www.w3.org/2000/svg">
    <path d="M409.6 853.34646201c0 18.82584599-15.281231 34.107077-34.14646199 34.10707598a273.05353799 273.05353799 0 0 1-272.93538402-264.54646099l-0.11815399-8.507077L102.4 375.45353799A273.05353799 273.05353799 0 0 1 375.45353799 102.4a34.14646199 34.14646199 0 0 1 2e-8 68.25353801 204.8 204.8 0 0 0-204.64246101 197.12l-0.15753901 7.67999998L170.65353799 614.4a204.8 204.8 0 0 0 204.80000002 204.8c18.865231 0 34.14646199 15.281231 34.14646199 34.14646199zM955.74646201 614.4a273.05353799 273.05353799 0 0 1-273.09292402 273.05353799 34.14646199 34.14646199 0 1 1 2e-8-68.25353799 204.8 204.8 0 0 0 204.681847-197.12l0.11815298-7.68L887.45353799 375.45353799a204.8 204.8 0 0 0-204.79999998-204.79999998 34.14646199 34.14646199 0 1 1-2e-8-68.25353801 273.05353799 273.05353799 0 0 1 272.93538501 264.54646201l0.15753901 8.50707598L955.74646201 614.4zM563.2 699.74646201a34.14646199 34.14646199 0 0 1-68.05661499 3.93846099l-0.196923-3.93846101 0-409.59999998a34.14646199 34.14646199 0 0 1 68.01722999-3.977847l0.236308 3.93846199 0 409.6z" fill="#2A83FC" />
</svg>