<svg viewBox="0 0 1024 1024" version="1.1" xmlns="http://www.w3.org/2000/svg">
    <path d="M508.8 0c-44 0-79.2 35.2-79.2 79.2s36 79.2 79.2 79.2 79.2-35.2 79.2-79.2-35.2-79.2-79.2-79.2z m0 112c-17.6 0-32.8-15.2-32.8-32.8 0-17.6 15.2-32.8 32.8-32.8 17.6 0 32.8 15.2 32.8 32.8 0 17.6-15.2 32.8-32.8 32.8zM708.8 1021.6h-400c-18.4 0-33.6-15.2-33.6-33.6 0-18.4 15.2-33.6 33.6-33.6h400c18.4 0 33.6 15.2 33.6 33.6 0 18.4-15.2 33.6-33.6 33.6z m0 0M275.2 554.4v107.2c0 4.8 4 8 8 8h107.2c4.8 0 8-4 8-8v-107.2c0-4.8-4-8-8-8h-107.2c-4 0-8 3.2-8 8z m82.4 80h-40.8c-4 0-6.4-3.2-6.4-6.4v-40.8c0-4 3.2-6.4 6.4-6.4h40.8c4 0 6.4 3.2 6.4 6.4v40.8c0 3.2-3.2 6.4-6.4 6.4zM580.8 398.4v107.2c0 4.8 4 8 8 8h107.2c4.8 0 8-4 8-8v-107.2c0-4.8-4-8-8-8h-107.2c-4.8 0-8 4-8 8z"
          fill="#00dc82"/>
    <path d="M454.4 648h-85.6c-3.2 0-6.4-2.4-6.4-6.4v-10.4c0-3.2 2.4-6.4 6.4-6.4h85.6c3.2 0 6.4 2.4 6.4 6.4v10.4c0 3.2-3.2 6.4-6.4 6.4zM596 450.4h-54.4c-3.2 0-6.4-2.4-6.4-6.4v-10.4c0-3.2 2.4-6.4 6.4-6.4h54.4c3.2 0 6.4 2.4 6.4 6.4v10.4c-0.8 4-3.2 6.4-6.4 6.4z"
          fill="#00dc82"/>
    <path d="M559.2 440.8l-101.6 204.8c-1.6 3.2-5.6 4.8-8.8 3.2l-9.6-4.8c-3.2-1.6-4.8-5.6-3.2-8.8l101.6-204.8c1.6-3.2 5.6-4.8 8.8-3.2l9.6 4.8c3.2 2.4 4.8 5.6 3.2 8.8zM873.6 488c-42.4 0-76 33.6-76 76v81.6c0 42.4 33.6 76 76 76 40.8 0 76-34.4 76-76v-81.6c0-41.6-34.4-76-76-76z m18.4 153.6c0 10.4-8 18.4-18.4 18.4-10.4 0-18.4-8-18.4-18.4v-70.4c0-10.4 8-18.4 18.4-18.4 9.6 0 18.4 8 18.4 18.4v70.4zM144 488c-42.4 0-76 33.6-76 76v81.6c0 42.4 33.6 76 76 76 40.8 0 76-34.4 76-76v-81.6c0-41.6-33.6-76-76-76z m19.2 153.6c0 10.4-8 18.4-18.4 18.4-10.4 0-18.4-8-18.4-18.4v-70.4c0-10.4 8-18.4 18.4-18.4 9.6 0 18.4 8 18.4 18.4v70.4z"
          fill="#00dc82"/>
    <path d="M509.6 192.8c-190.4 0-344.8 154.4-344.8 344v352h220v-74.4h-145.6v-276.8c0-148.8 120.8-269.6 271.2-269.6 149.6 0 270.4 120.8 270.4 269.6v276.8h-145.6v74.4h220v-352c-0.8-189.6-155.2-344-345.6-344z"
          fill="#00dc82"/>
    <path d="M597.6 891.2h-180.8c-1.6 0-3.2-1.6-3.2-3.2v-70.4c0-1.6 1.6-3.2 3.2-3.2h180.8c1.6 0 3.2 1.6 3.2 3.2v70.4c0 1.6-1.6 3.2-3.2 3.2zM624.8 615.2c-24 0-44 20-44 44s20 44 44 44 44-20 44-44-20-44-44-44z m0 68.8c-13.6 0-24.8-11.2-24.8-24.8 0-13.6 11.2-24.8 24.8-24.8 13.6 0 24.8 11.2 24.8 24.8 0 13.6-11.2 24.8-24.8 24.8z"
          fill="#00dc82"/>
    <path d="M720 634.4l-15.2-2.4c-0.8-3.2-2.4-5.6-3.2-8.8l9.6-12.8c5.6-5.6 5.6-14.4 0-19.2l-16.8-16.8c-5.6-5.6-14.4-5.6-19.2 0l-12.8 9.6c-3.2-1.6-5.6-2.4-8.8-4l-2.4-16c0-8-6.4-13.6-13.6-13.6h-23.2c-8 0-13.6 6.4-13.6 13.6l-2.4 15.2c-3.2 0.8-5.6 2.4-8.8 3.2l-12.8-9.6c-5.6-5.6-14.4-5.6-19.2 0l-16.8 16.8c-5.6 5.6-5.6 14.4 0 19.2l9.6 12.8c-1.6 2.4-2.4 5.6-3.2 8.8l-16 2.4c-8 0-13.6 6.4-13.6 13.6v23.2c0 8 6.4 13.6 13.6 13.6l16 2.4c0.8 3.2 2.4 5.6 3.2 8.8l-9.6 12.8c-5.6 5.6-5.6 14.4 0 19.2l16.8 16.8c5.6 5.6 14.4 5.6 19.2 0l12.8-9.6c2.4 1.6 5.6 2.4 8 3.2l2.4 16c0 8 6.4 13.6 13.6 13.6h23.2c8 0 13.6-6.4 13.6-13.6l2.4-16c3.2-0.8 5.6-2.4 8.8-3.2l12.8 9.6c5.6 5.6 14.4 5.6 19.2 0l16.8-16.8c5.6-5.6 5.6-14.4 0-19.2l-9.6-12.8c1.6-2.4 2.4-5.6 3.2-8.8l16-2.4c8 0 13.6-6.4 13.6-13.6V648c0.8-7.2-5.6-13.6-13.6-13.6z m-8.8 36h-1.6l-14.4 2.4-7.2 0.8-2.4 7.2c-0.8 2.4-1.6 4-2.4 6.4l-3.2 7.2 4.8 6.4 8.8 12 0.8 0.8 0.8 0.8-15.2 15.2-0.8-0.8-0.8-0.8-12-8.8-6.4-4.8-6.4 3.2c-2.4 0.8-4 1.6-6.4 2.4l-7.2 2.4-1.6 7.2-2.4 14.4v1.6h-21.6v-1.6l-2.4-14.4-0.8-7.2-7.2-2.4c-2.4-0.8-4-1.6-6.4-2.4l-7.2-3.2-6.4 4.8-12 8.8-0.8 0.8-0.8 0.8-15.2-15.2 0.8-0.8 0.8-0.8 8.8-12 4.8-6.4-3.2-6.4c-0.8-2.4-1.6-4-2.4-6.4l-2.4-7.2-7.2-1.6-14.4-2.4h-1.6V648h1.6l14.4-2.4 7.2-0.8 2.4-7.2c0.8-2.4 1.6-4 2.4-6.4l3.2-6.4-4.8-6.4-8.8-11.2v-0.8l-0.8-0.8 15.2-15.2 0.8 0.8 0.8 0.8 12 8.8 6.4 4.8 6.4-3.2c2.4-0.8 4-1.6 6.4-2.4l7.2-2.4 0.8-7.2 1.6-14.4v-1.6h21.6v1.6l2.4 14.4 0.8 7.2 7.2 2.4c2.4 0.8 4.8 1.6 6.4 2.4l7.2 3.2 6.4-4.8 11.2-8.8h0.8l0.8-0.8 15.2 15.2-0.8 0.8-0.8 0.8-8.8 11.2-4.8 6.4 3.2 6.4c0.8 2.4 1.6 4 2.4 6.4l2.4 7.2 7.2 0.8 14.4 2.4h1.6l1.6 21.6z"
          fill="#00dc82"/>
</svg>