<svg viewBox="0 0 1024 1024" version="1.1" xmlns="http://www.w3.org/2000/svg">
    <path d="M960 0a64 64 0 1 1-32.512 119.136L741.12 305.504c16.832 21.664 26.88 48.896 26.88 78.496v256c0 29.6-10.048 56.832-26.88 78.496l186.368 186.368a64 64 0 1 1-22.624 22.624l-186.368-186.368A127.456 127.456 0 0 1 640 768h-256a127.456 127.456 0 0 1-78.496-26.88l-186.368 186.368a64 64 0 1 1-22.624-22.624l186.368-186.368A127.456 127.456 0 0 1 256 640v-256c0-29.6 10.048-56.832 26.88-78.496L96.512 119.136a64 64 0 1 1 22.624-22.624L305.504 282.88A127.456 127.456 0 0 1 384 256h256c29.6 0 56.832 10.048 78.496 26.88l186.368-186.368A64 64 0 0 1 960 0zM320 864a64 64 0 1 1 0 128 64 64 0 0 1 0-128z m384 0a64 64 0 1 1 0 128 64 64 0 0 1 0-128z m0-32v32H320v-32h384z m224-224a64 64 0 1 1 0 128 64 64 0 0 1 0-128zM96 608a64 64 0 1 1 0 128 64 64 0 0 1 0-128z m768-256v320h-32V352h32zM192 352v320H160V352h32z m736-64a64 64 0 1 1 0 128 64 64 0 0 1 0-128zM96 288a64 64 0 0 1 63.84 59.2L160 352a64 64 0 1 1-64-64z m608-128v32H320V160h384zM320 32a64 64 0 1 1 0 128 64 64 0 0 1 0-128z m384 0a64 64 0 1 1 0 128 64 64 0 0 1 0-128z"
    />
    <path d="M576 352a128 128 0 0 1 128 128v64a128 128 0 0 1-128 128h-128a128 128 0 0 1-128-128v-64a128 128 0 0 1 128-128h128z m-112 96a16 16 0 0 0-16 16v96a16 16 0 1 0 32 0v-96a16 16 0 0 0-16-16z m96 0a16 16 0 0 0-16 16v96a16 16 0 1 0 32 0v-96a16 16 0 0 0-16-16z"
    />
</svg>