<svg viewBox="0 0 1024 1024" version="1.1" xmlns="http://www.w3.org/2000/svg">
    <path d="M555.6736 28.962133l-522.24 256v458.24L468.309333 995.037867l522.24-291.037867V245.674667z"
          fill="#FCC21B"/>
    <path d="M468.309333 1019.767467a24.9856 24.9856 0 0 1-12.475733-3.413334L21.0432 764.654933a24.763733 24.763733 0 0 1-12.407467-21.435733V284.962133a24.763733 24.763733 0 0 1 13.841067-22.186666l522.24-256a24.746667 24.746667 0 0 1 21.998933 0l434.875734 216.746666a24.8832 24.8832 0 0 1 13.653333 22.186667v458.308267a24.917333 24.917333 0 0 1-12.714667 21.674666l-522.24 291.037867a24.337067 24.337067 0 0 1-11.9808 3.037867zM58.231467 728.968533l410.3168 237.602134 497.2032-277.128534v-428.373333L555.588267 56.576 58.231467 300.407467z"
          fill="#855C52"/>
    <path d="M287.351467 517.512533l-74.0864-38.4a19.5072 19.5072 0 0 0-30.72 13.653334 43.588267 43.588267 0 0 0 22.562133 42.666666l78.728533 41.4208a29.422933 29.422933 0 0 0 12.9536 3.037867 17.442133 17.442133 0 0 0 16.64-18.773333 51.319467 51.319467 0 0 0-26.077866-43.605334z"
          fill="#855C52"/>
    <path d="M292.1472 496.0768l-82.6368-41.608533v-70.5536l82.6368 42.3936z" fill="#B89278"/>
    <path d="M292.1472 865.450667l-82.6368-47.9232V746.325333l82.6368 49.3568z" fill="#B89278"/>
    <path d="M787.029333 172.0832l-85.128533-42.478933-488.072533 242.346666 85.1968 43.6736z" fill="#B89278"/>
    <path d="M468.360533 1013.998933a18.875733 18.875733 0 0 1-9.5232-2.56L23.9104 759.6032a19.182933 19.182933 0 0 1-9.5232-16.554667V284.962133a18.9952 18.9952 0 0 1 27.682133-16.878933l434.824534 222.958933a19.029333 19.029333 0 0 1 10.24 16.878934v487.202133a19.114667 19.114667 0 0 1-9.437867 16.4864 20.258133 20.258133 0 0 1-9.335467 2.389333zM52.462933 732.245333l396.885334 229.8368V519.4752L52.462933 315.989333z"
          fill="#855C52"/>
    <path d="M468.2752 526.882133a19.0976 19.0976 0 0 1-8.635733-2.082133L24.797867 301.841067a18.961067 18.961067 0 0 1 0.324266-33.928534l522.24-256a19.063467 19.063467 0 0 1 16.7936 0l434.8928 216.7296a18.926933 18.926933 0 0 1 0 33.911467l-522.24 262.2464a19.285333 19.285333 0 0 1-8.533333 2.082133z m-392.533333-241.595733l392.533333 201.284267L948.0704 245.76 555.588267 50.141867z"
          fill="#855C52"/>
    <path d="M468.309333 1013.998933a19.029333 19.029333 0 0 1-19.0464-19.0464V507.7504a18.773333 18.773333 0 0 1 10.478934-16.964267l522.24-262.161066a18.9952 18.9952 0 0 1 27.511466 16.964266v458.427734a19.131733 19.131733 0 0 1-9.762133 16.64l-522.24 291.037866a19.626667 19.626667 0 0 1-9.181867 2.304z m18.961067-494.404266v443.118933l484.232533-269.909333V276.48z"
          fill="#855C52"/>
</svg>