<svg viewBox="0 0 1024 1024" version="1.1" xmlns="http://www.w3.org/2000/svg">
    <path d="M408.551619 97.52381a73.142857 73.142857 0 0 1 51.736381 21.430857L539.306667 197.973333A73.142857 73.142857 0 0 0 591.067429 219.428571H804.571429a73.142857 73.142857 0 0 1 73.142857 73.142858v333.165714l-125.878857 124.001524-69.729524-68.803048-119.881143 121.465905L687.932952 926.47619H219.428571a73.142857 73.142857 0 0 1-73.142857-73.142857V170.666667a73.142857 73.142857 0 0 1 73.142857-73.142857h189.123048z m490.886095 575.390476l51.321905 52.102095-198.948571 195.974095-120.588191-118.979047 51.370667-52.077715 69.266286 68.33981 147.577904-145.359238zM341.333333 633.904762h-73.142857v73.142857h73.142857v-73.142857z m195.047619 0h-146.285714v73.142857h146.285714v-73.142857z m-195.047619-195.047619h-73.142857v73.142857h73.142857v-73.142857z m414.476191 0H390.095238v73.142857h365.714286v-73.142857z"
    />
</svg>