<svg viewBox="0 0 1024 1024" version="1.1" xmlns="http://www.w3.org/2000/svg">
    <path d="M0 0m204.8 0l614.4 0q204.8 0 204.8 204.8l0 614.4q0 204.8-204.8 204.8l-614.4 0q-204.8 0-204.8-204.8l0-614.4q0-204.8 204.8-204.8Z"
          fill="#DAECFF"/>
    <path d="M703.488 448.768H422.912c-7.3728 0-13.312 6.144-13.312 13.6704v35.8912c0 7.5776 5.9392 13.6704 13.312 13.6704h280.576c7.3728 0 13.312-6.144 13.312-13.6704v-35.8912a13.4656 13.4656 0 0 0-13.312-13.6704z m-348.16 0h-34.816c-7.3728 0-13.312 6.144-13.312 13.6704v35.8912c0 7.5776 5.9392 13.6704 13.312 13.6704h34.816c7.3728 0 13.312-6.144 13.312-13.6704v-35.8912a13.4656 13.4656 0 0 0-13.312-13.6704z m348.16 168.6528H422.912c-7.3728 0-13.312 6.144-13.312 13.6704v35.8912c0 7.5776 5.9392 13.6704 13.312 13.6704h280.576c7.3728 0 13.312-6.144 13.312-13.6704v-35.8912a13.4656 13.4656 0 0 0-13.312-13.6704z m-348.16 0h-34.816c-7.3728 0-13.312 6.144-13.312 13.6704v35.8912c0 7.5776 5.9392 13.6704 13.312 13.6704h34.816c7.3728 0 13.312-6.144 13.312-13.6704v-35.8912a13.4656 13.4656 0 0 0-13.312-13.6704zM425.1648 153.6c16.2816 0 31.9488 6.656 43.4688 18.5344l66.3552 68.3008c11.52 11.9296 27.136 18.5856 43.52 18.5856H757.76c16.2816 0 31.8976 6.656 43.4176 18.5344 11.5712 11.8272 18.0224 27.9552 18.0224 44.6976v484.864c0 16.7936-6.4512 32.9216-18.0224 44.7488-11.52 11.8784-27.136 18.5344-43.4176 18.5344H266.24c-16.2816 0-31.8976-6.656-43.4688-18.5344A64.2048 64.2048 0 0 1 204.8 807.168V216.832C204.8 181.9136 232.2944 153.6 266.24 153.6h158.8736z"
          fill="#419EFF"/>
</svg>