<svg viewBox="0 0 1024 1024" version="1.1" xmlns="http://www.w3.org/2000/svg"
>
    <path d="M19.692308 20.283077h984.615384v984.615385H19.692308z" fill="#FFFFFF"/>
    <path d="M695.689846 403.574154c33.831385-2.953846 85.543385-29.026462 100.706462-80.935385 84.755692 97.910154 107.047385 299.598769 23.000615 439.177846-7.995077 12.406154-18.077538 27.726769-30.444308 40.920616-36.233846 43.795692-123.037538 123.392-280.969846 123.392-120.201846 0-197.041231-46.001231-245.602461-84.716308-48.600615-38.754462-81.762462-97.910154-96.925539-149.819077-51.515077-195.741538 48.443077-366.001231 183.926154-458.830769 0 46.749538 5.513846 100.036923 30.444308 134.459077 58.564923-69.435077 117.248-139.500308 117.248-268.169846 120.674462 62.188308 192.827077 133.750154 198.616615 304.521846z"
          fill="#FF4242"/>
</svg>