<svg viewBox="0 0 1024 1024" version="1.1" xmlns="http://www.w3.org/2000/svg">
    <path d="M32 512a64 64 0 0 0 64 64c106.048 0 192 57.28 192 128a224 224 0 0 0 224 224c5.312 0 5.76-7.584 0.64-9.088A224.096 224.096 0 0 1 352 704c52.064-91.84 108.544-192 108.544-192S405.28 413.952 352 320a224.096 224.096 0 0 1 160.64-214.912C517.76 103.584 517.312 96 512 96a224 224 0 0 0-224 224c0 70.72-85.952 128-192 128a64 64 0 0 0-64 64z"
          fill="#FFFFFF"/>
    <path d="M544.64 105.088C549.76 103.584 549.312 96 544 96a224 224 0 0 0-224 224c0 49.664-27.136 94.048-69.76 123.392a559.872 559.872 0 0 0 105.376-24.128l7.328-2.464a16 16 0 0 1 10.112 30.4l-7.328 2.4a592 592 0 0 1-187.2 30.4H96a32 32 0 1 0 0 64h82.528a592 592 0 0 1 187.2 30.4l7.36 2.432a16 16 0 1 1-10.144 30.336l-7.328-2.432a560 560 0 0 0-105.376-24.128C292.8 609.92 320 654.336 320 704a224 224 0 0 0 224 224c5.312 0 5.76-7.584 0.64-9.088C516.992 704 492.544 512 492.544 512s27.456-240 52.096-406.912z"
          fill="#BEBEBE"/>
    <path d="M768 320a223.872 223.872 0 0 1-108.544 192A224 224 0 0 1 544 928c5.312 0 5.76-7.584 0.64-9.088a224.096 224.096 0 0 1-78.048-388.64v-36.544a224.096 224.096 0 0 1 78.08-388.64C549.696 103.584 549.28 96 544 96a224 224 0 0 1 224 224z"
          fill="#DADADA"/>
    <path d="M416 512a288 288 0 0 1 288-288c159.296 49.28 238.336 128.96 238.336 288s-69.44 232.384-238.336 288a288 288 0 0 1-288-288z"
          fill="#E6E6E6"/>
    <path d="M647.232 290.88c9.12-1.664 10.816 11.456 2.464 15.52-70.56 34.464-119.904 113.536-119.904 205.6s49.344 171.136 119.904 205.6c8.32 4.064 6.656 17.184-2.464 15.52a181.056 181.056 0 0 1-42.784-13.408C531.488 686.496 480 606.016 480 512c0-94.016 51.488-174.496 124.448-207.712a181.12 181.12 0 0 1 42.784-13.44z"
          fill="#FFFFFF"/>
    <path d="M768.896 128a32 32 0 1 0 0-64 32 32 0 0 0 0 64zM960.896 160a64 64 0 1 1-128 0 64 64 0 0 1 128 0zM832.896 912a48 48 0 1 1-96 0 48 48 0 0 1 96 0zM703.04 787.648c-6.72 2.144-6.048 12.352 0.96 12.352a288 288 0 1 0 0-576c-7.008 0-7.68 10.208-0.96 12.352C814.72 272.192 896 382.048 896 512c0 129.952-81.28 239.808-192.96 275.648z"
          fill="#BEBEBE"/>
</svg>