<svg viewBox="0 0 1024 1024" version="1.1" xmlns="http://www.w3.org/2000/svg">
    <path d="M416 736h128v128h-128z m-320-192h128v-128h-128z m0 192h128v128h-128z m640 0h128v128h-128z m-320-192h128v-128h-128z m-320-320h128v-128h-128z m593.152-43.648l90.496 90.496-90.496 90.56-90.56-90.56z"
          fill="#212121" opacity=".1"/>
    <path d="M384 864v-128l32-32h128l32 32v128l-32 32h-128zM512 768H448v64h64zM64 544v-128l32-32h128l32 32v128l-32 32h-128zM192 448H128v64h64z m-128 416v-128l32-32h128l32 32v128l-32 32h-128zM192 768H128v64h64z m512 96v-128l32-32h128l32 32v128l-32 32h-128z m128-96h-64v64h64zM384 544v-128l32-32h128l32 32v128l-32 32h-128zM512 448H448v64h64zM64 224v-128l32-32h128l32 32v128l-32 32h-128zM192 128H128v64h64z m519.744 256h-45.248L576 293.504v-45.248l90.496-90.496h45.248l90.496 90.496v45.248z m-67.84-113.152l45.248 45.248 45.248-45.248-45.248-45.248z"
          fill="#212121"/>
</svg>