<svg viewBox="0 0 1024 1024" version="1.1" xmlns="http://www.w3.org/2000/svg">
    <path d="M618.726827 661.333333m-234.666667 0a234.666667 234.666667 0 1 0 469.333333 0 234.666667 234.666667 0 1 0-469.333333 0Z"
          fill="#BCD8FA"/>
    <path d="M381.24416 166.144c-25.173333 0-48.64 13.568-61.269333 35.413333L198.118827 412.586667a70.954667 70.954667 0 0 0 0 70.741333l121.856 211.072c12.586667 21.845333 36.096 35.413333 61.269333 35.413333h243.754667c25.173333 0 48.64-13.568 61.226666-35.370666l121.898667-211.114667a70.954667 70.954667 0 0 0 0-70.741333l-121.898667-211.072a70.912 70.912 0 0 0-61.226666-35.370667H381.24416z m243.754667 624.256H381.24416a131.712 131.712 0 0 1-113.749333-65.664L145.553493 513.664a131.754667 131.754667 0 0 1 0-131.413333l121.898667-211.029334A131.754667 131.754667 0 0 1 381.24416 105.514667h243.754667c46.762667 0 90.368 25.173333 113.749333 65.706666l121.856 211.072c23.424 40.533333 23.424 90.88 0 131.370667l-121.856 211.072a131.584 131.584 0 0 1-113.749333 65.706667z"
          fill="#000000"/>
    <path d="M503.10016 346.922667A101.162667 101.162667 0 0 0 402.065493 448a101.162667 101.162667 0 0 0 101.034667 101.034667A101.162667 101.162667 0 0 0 604.134827 448 101.162667 101.162667 0 0 0 503.10016 346.88m0 262.741333C413.926827 609.706667 341.393493 537.173333 341.393493 448 341.393493 358.826667 413.926827 286.293333 503.10016 286.293333s161.706667 72.533333 161.706667 161.706667c0 89.130667-72.533333 161.706667-161.706667 161.706667"
          fill="#252525"/>
</svg>