<svg viewBox="0 0 1024 1024" version="1.1" xmlns="http://www.w3.org/2000/svg">
    <path d="M512 276.1m-272.1 0a272.1 272.1 0 1 0 544.2 0 272.1 272.1 0 1 0-544.2 0Z" fill="#42b883"/>
    <path d="M511.6 1016.3c-100 0-181.3-81.3-181.3-181.3 0-91.5 68.2-167.4 156.4-179.6l0.3-71c0.1-13.8 11.2-24.9 25-24.9h0.1c13.8 0.1 25 11.3 24.9 25.1l-0.4 94.1c-0.1 13.8-11.2 24.9-25 24.9-72.4 0-131.3 58.9-131.3 131.3s58.9 131.3 131.3 131.3S642.9 907.4 642.9 835c0-13.8 11.2-25 25-25s25 11.2 25 25c0 100-81.3 181.3-181.3 181.3z"
          fill="#35495e"/>
    <path d="M387.1 404.8h249.8c9.4 0 17.1 7.7 17.1 17.1v181.8c0 9.4-7.7 17.1-17.1 17.1H387.1c-9.4 0-17.1-7.7-17.1-17.1V421.9c0-9.4 7.7-17.1 17.1-17.1z"
          fill="#42b883"/>
</svg>