<svg viewBox="0 0 1024 1024" version="1.1" xmlns="http://www.w3.org/2000/svg">
    <path d="M0 0m170.666667 0l682.666666 0q170.666667 0 170.666667 170.666667l0 682.666666q0 170.666667-170.666667 170.666667l-682.666666 0q-170.666667 0-170.666667-170.666667l0-682.666666q0-170.666667 170.666667-170.666667Z" fill="#FFAA44" fill-opacity=".1"/>
    <path d="M170.666667 170.666667h682.666666v682.666666H170.666667V170.666667z" fill="#202425" opacity=".01"
    />
    <path d="M506.709333 805.034667a22.741333 22.741333 0 0 1-40.234666-14.549334v-335.36a11.349333 11.349333 0 0 1 11.392-11.392h281.386666a22.784 22.784 0 0 1 17.493334 37.333334l-270.037334 323.968z" fill="#FFAA44"/>
    <path d="M517.290667 218.965333a22.741333 22.741333 0 0 1 40.234666 14.506667v301.269333A45.525333 45.525333 0 0 1 512 580.266667H264.746667a22.741333 22.741333 0 0 1-17.493334-37.333334l270.037334-323.968z" fill="#FFAA44"/>
</svg>