<svg viewBox="0 0 1024 1024" version="1.1" xmlns="http://www.w3.org/2000/svg">
    <path d="M192 170.666667h625.777778v682.666666h-625.777778z" fill="#F0F3F7"/>
    <path d="M618.666667 243.797333m56.888889 0l0 0q56.888889 0 56.888888 56.888889l0 422.599111q0 56.888889-56.888888 56.888889l0 0q-56.888889 0-56.888889-56.888889l0-422.599111q0-56.888889 56.888889-56.888889Z"
          fill="#CED4D9"/>
    <path d="M618.666667 382.862222m56.888889 0l0 0q56.888889 0 56.888888 56.888889l0 144.469333q0 56.888889-56.888888 56.888889l0 0q-56.888889 0-56.888889-56.888889l0-144.469333q0-56.888889 56.888889-56.888889Z"
          fill="#858D95"/>
    <path d="M576 243.797333v29.297778H277.333333V243.768889zM576 307.2v29.269333H277.333333v-29.297777zM576 370.574222v29.297778H277.333333v-29.297778zM576 433.976889v29.269333H277.333333v-29.297778zM576 497.351111v29.297778H277.333333v-29.297778zM576 560.753778v29.269333H277.333333v-29.297778zM576 624.128v29.297778H277.333333v-29.297778zM576 687.502222v29.297778H277.333333v-29.297778zM576 750.933333v29.240889H277.333333V750.933333z"
          fill="#CED4D9"/>
</svg>